<svg width="53" height="52" viewBox="0 0 53 52" fill="none" xmlns="http://www.w3.org/2000/svg">
<rect x="0.0266113" width="52" height="52" rx="10" fill="#2D63EB"/>
<path d="M44.0258 27.749C43.9931 28.9405 42.9855 29.875 41.7936 29.875H38.011V30.9688C38.011 32.4634 37.6772 33.8798 37.0813 35.1486L41.1984 39.2657C42.0526 40.12 42.0526 41.5051 41.1984 42.3594C40.3441 43.2136 38.959 43.2136 38.1047 42.3594L34.363 38.6176C32.6711 39.9898 30.5154 40.8125 28.1672 40.8125V24.1328C28.1672 23.6798 27.7999 23.3125 27.3469 23.3125H25.7063C25.2532 23.3125 24.886 23.6798 24.886 24.1328V40.8125C22.5377 40.8125 20.382 39.9898 18.6901 38.6176L14.9484 42.3594C14.0941 43.2136 12.709 43.2136 11.8547 42.3594C11.0005 41.5051 11.0005 40.12 11.8547 39.2657L15.9719 35.1486C15.3759 33.8798 15.0422 32.4634 15.0422 30.9688V29.875H11.2596C10.0677 29.875 9.06013 28.9405 9.02746 27.749C8.99348 26.5128 9.98552 25.5 11.2141 25.5H15.0422V21.4842L11.8547 18.2968C11.0005 17.4425 11.0005 16.0575 11.8547 15.2032C12.7091 14.3489 14.0941 14.3489 14.9484 15.2032L18.6827 18.9375H34.3704L38.1047 15.2032C38.959 14.3489 40.344 14.3489 41.1984 15.2032C42.0526 16.0575 42.0526 17.4426 41.1984 18.2968L38.011 21.4842V25.5H41.8391C43.0676 25.5 44.0597 26.5128 44.0258 27.749ZM26.5949 8C22.3665 8 18.9387 11.4278 18.9387 15.6563H34.2512C34.2512 11.4278 30.8234 8 26.5949 8Z" fill="white"/>
</svg>
