<svg width="53" height="52" viewBox="0 0 53 52" fill="none" xmlns="http://www.w3.org/2000/svg">
<rect x="0.0266113" width="52" height="52" rx="10" fill="#2D63EB"/>
<path d="M44.0266 18.6562V38.3438C44.0266 40.1553 42.5569 41.625 40.7454 41.625H12.3079C10.4963 41.625 9.02661 40.1553 9.02661 38.3438V18.6562C9.02661 16.8447 10.4963 15.375 12.3079 15.375H18.3235L19.1643 13.126C19.6428 11.8477 20.8665 11 22.2336 11H30.8127C32.1799 11 33.4036 11.8477 33.8821 13.126L34.7297 15.375H40.7454C42.5569 15.375 44.0266 16.8447 44.0266 18.6562ZM34.7297 28.5C34.7297 23.9746 31.052 20.2969 26.5266 20.2969C22.0012 20.2969 18.3235 23.9746 18.3235 28.5C18.3235 33.0254 22.0012 36.7031 26.5266 36.7031C31.052 36.7031 34.7297 33.0254 34.7297 28.5ZM32.5422 28.5C32.5422 31.8154 29.842 34.5156 26.5266 34.5156C23.2112 34.5156 20.511 31.8154 20.511 28.5C20.511 25.1846 23.2112 22.4844 26.5266 22.4844C29.842 22.4844 32.5422 25.1846 32.5422 28.5Z" fill="white"/>
</svg>
