<svg width="53" height="53" viewBox="0 0 53 53" fill="none" xmlns="http://www.w3.org/2000/svg">
<rect x="0.0266113" y="0.333313" width="52" height="52" rx="10" fill="#2D63EB"/>
<path d="M26.3391 44.1111C28.7536 44.1111 30.7121 42.1526 30.7121 39.7361H21.9662C21.9662 42.1526 23.9247 44.1111 26.3391 44.1111ZM41.0631 33.877C39.7424 32.4579 37.2712 30.323 37.2712 23.3298C37.2712 18.0183 33.547 13.7664 28.5253 12.7232V11.2986C28.5253 10.0907 27.5464 9.11108 26.3391 9.11108C25.1319 9.11108 24.153 10.0907 24.153 11.2986V12.7232C19.1313 13.7664 15.4071 18.0183 15.4071 23.3298C15.4071 30.323 12.9359 32.4579 11.6152 33.877C11.2051 34.3179 11.0232 34.845 11.0267 35.3611C11.0342 36.4822 11.914 37.5486 13.221 37.5486H39.4573C40.7643 37.5486 41.6448 36.4822 41.6516 35.3611C41.6551 34.845 41.4732 34.3172 41.0631 33.877V33.877Z" fill="white"/>
</svg>
